<svg width="14" height="14" viewBox="0 0 14 14" fill="none" xmlns="http://www.w3.org/2000/svg">
<g opacity="0.497652">
<path fill-rule="evenodd" clip-rule="evenodd" d="M8.16465 1.17673C7.52143 0.533515 6.47857 0.533515 5.83535 1.17673L1.17677 5.83532C1.13657 5.87552 1.09888 5.91728 1.0637 5.96041C0.536064 6.60733 0.573752 7.56159 1.17677 8.16461L5.83535 12.8232C6.47857 13.4664 7.52143 13.4664 8.16465 12.8232C8.80786 12.18 8.80786 11.1371 8.16465 10.4939L4.67071 6.99996L8.16465 3.50602C8.80786 2.86281 8.80786 1.81995 8.16465 1.17673Z" fill="#3A4562"/>
<mask id="mask0_1_3000" style="mask-type:alpha" maskUnits="userSpaceOnUse" x="0" y="0" width="9" height="14">
<path fill-rule="evenodd" clip-rule="evenodd" d="M8.16465 1.17673C7.52143 0.533515 6.47857 0.533515 5.83535 1.17673L1.17677 5.83532C1.13657 5.87552 1.09888 5.91728 1.0637 5.96041C0.536064 6.60733 0.573752 7.56159 1.17677 8.16461L5.83535 12.8232C6.47857 13.4664 7.52143 13.4664 8.16465 12.8232C8.80786 12.18 8.80786 11.1371 8.16465 10.4939L4.67071 6.99996L8.16465 3.50602C8.80786 2.86281 8.80786 1.81995 8.16465 1.17673Z" fill="white"/>
</mask>
<g mask="url(#mask0_1_3000)">
<rect width="11.1176" height="14" fill='#7D859C'/>
</g>
</g>
</svg>
